<mxfile host="app.diagrams.net" modified="2024-04-05T15:19:33.540Z" agent="Mozilla/5.0 (Macintosh; Intel Mac OS X 10_15_7) AppleWebKit/537.36 (KHTML, like Gecko) Chrome/123.0.0.0 Safari/537.36" version="24.2.2" etag="i2D1hJv0RjstwgzgWoLn" type="github">
  <diagram name="Page-1" id="MAIwq9aSr1hxVmdLK08U">
    <mxGraphModel>
      <root>
        <mxCell id="0" />
        <mxCell id="1" parent="0" />
      </root>
    </mxGraphModel>
  </diagram>
</mxfile>
